<?xml version="1.0" encoding="UTF-8"?>
<svg xmlns="http://www.w3.org/2000/svg" id="Layer_1" data-name="Layer 1" x="0px" y="0px" width="258px" height="100px" viewBox="0 0 258 100" xml:space="preserve">


<defs><style>.cls-1{fill:#fff;}.cls-2{fill:#0072bc;}</style></defs>


<title>Anthem HealthKeepers Plus</title>

<polygon class="cls-1" points="128.51 22.45 121.8 22.45 121.8 15.74 111.12 15.74 111.12 22.45 104.41 22.45 104.41 33.16 111.12 33.16 111.12 39.87 121.8 39.87 121.8 33.16 128.51 33.16 128.51 22.45"></polygon><path class="cls-2" d="M123,38.12A1.83,1.83,0,1,1,124.82,40,1.83,1.83,0,0,1,123,38.12Zm3.36,0a1.54,1.54,0,1,0-1.53,1.54A1.48,1.48,0,0,0,126.35,38.12Zm-1.95,1h-.26V37.07H125c.55,0,.73.2.73.58s-.28.55-.64.58l.62.93h-.31l-.58-.93h-.45Zm.37-1.17c.29,0,.7,0,.7-.35s-.24-.33-.49-.33h-.58V38Z"></path><path class="cls-2" d="M117.75,24.14c0-.54.7-.62.36-1.8a5.94,5.94,0,0,1,2.69,1.8Z"></path><path class="cls-2" d="M115.12,24.14h-3.05a4.66,4.66,0,0,1,2.69-1.79C114.42,23.52,115.12,23.6,115.12,24.14Z"></path><path class="cls-2" d="M122,26.49a5.86,5.86,0,0,1-1.26,5s-2-3.85-2.26-4.28,0-.44.25-.47S122,26.49,122,26.49Z"></path><path class="cls-2" d="M110.84,26.49s3.08.25,3.27.25.48.06.25.47-2.26,4.28-2.26,4.28A5.86,5.86,0,0,1,110.84,26.49Z"></path><path class="cls-2" d="M118.81,33a5.89,5.89,0,0,1-4.75,0,37.19,37.19,0,0,1,2.37-3.44A35.48,35.48,0,0,1,118.81,33Z"></path><path class="cls-2" d="M128.51,22.45H121.8V15.74H111.12v6.71h-6.71V33.16h6.71v6.71H121.8V33.16h6.71Zm-16.7.65A6.62,6.62,0,0,1,122.5,25H118a1.41,1.41,0,0,1-1-.33.8.8,0,0,1,.08-1.12.87.87,0,1,0-1.17,0,.8.8,0,0,1,.08,1.12,1.41,1.41,0,0,1-1,.33h-4.43A6.61,6.61,0,0,1,111.81,23.1Zm-1.94,4.67a6.73,6.73,0,0,1,.39-2.25c1.62,0,3,.27,3.94.32s1.65.56,1,1.77l-2.85,5.32A6.6,6.6,0,0,1,109.87,27.77Zm6.62,6.62a6.58,6.58,0,0,1-3.74-1.16c.55-.81,3-4.29,3.1-4.53s.31-.45.58-.45.43.17.59.45,3.14,4.58,3.14,4.58A6.59,6.59,0,0,1,116.49,34.39ZM120.55,33c-.09-.17-2.24-4.19-2.89-5.39s.06-1.71,1-1.77,2.39-.31,4-.33a6.51,6.51,0,0,1,.4,2.26A6.63,6.63,0,0,1,120.55,33Z"></path><path class="cls-1" d="M149.3,15.56a16,16,0,0,1-8,1.86,15.83,15.83,0,0,1-8-1.86,14.05,14.05,0,0,0-1.49,6.94,21.41,21.41,0,0,0,5.47,14.17c1.08,1.15,3.22,2.92,4,3.1.83-.18,3-2,4-3.1a21.47,21.47,0,0,0,5.46-14.17A14.17,14.17,0,0,0,149.3,15.56Z"></path><path class="cls-2" d="M146,38.12A1.83,1.83,0,1,1,147.86,40,1.83,1.83,0,0,1,146,38.12Zm3.36,0a1.53,1.53,0,1,0-1.53,1.54A1.47,1.47,0,0,0,149.39,38.12Zm-1.94,1h-.27V37.07h.89c.55,0,.73.2.73.58s-.28.55-.64.58l.62.93h-.3l-.59-.93h-.44Zm.36-1.17c.3,0,.7,0,.7-.35s-.24-.33-.49-.33h-.57V38Z"></path><path class="cls-2" d="M149.3,15.56a16,16,0,0,1-8,1.86,15.83,15.83,0,0,1-8-1.86,14.05,14.05,0,0,0-1.49,6.94,21.41,21.41,0,0,0,5.47,14.17c1.08,1.15,3.22,2.92,4,3.1.83-.18,3-2,4-3.1a21.47,21.47,0,0,0,5.46-14.17A14.17,14.17,0,0,0,149.3,15.56Zm-4.39,19a19.63,19.63,0,0,1-3.64,3.19,20.29,20.29,0,0,1-3.64-3.19,19.63,19.63,0,0,1-4.16-12.17c0-1.5.23-3.68.75-4.47a16.65,16.65,0,0,0,7.05,1.45,16.61,16.61,0,0,0,7-1.45,10.86,10.86,0,0,1,.76,4.47A19.61,19.61,0,0,1,144.91,34.6Z"></path><path class="cls-2" d="M140.3,22.14s-.06.16-.17.17a.31.31,0,0,1-.25-.08,1,1,0,0,0-.32-.14A1,1,0,0,1,140.3,22.14Z"></path><path class="cls-2" d="M147.88,19.1c-1.28.68-4,1.06-6.61,1.06s-5.33-.38-6.61-1.06c-.47.71-.56,2.53-.52,3.89.2,7,3.39,10.4,3.85,11a19.49,19.49,0,0,0,3.28,3,19.51,19.51,0,0,0,3.29-3c.45-.55,3.64-4,3.84-10.95A8.55,8.55,0,0,0,147.88,19.1ZM140.42,35a.09.09,0,0,1-.12,0c-.13-.07-.15-.36-.15-.43a1.06,1.06,0,0,1,.54-.94v.66C140.49,34.52,140.52,34.87,140.42,35Zm1,.46a.65.65,0,0,1-.57,0c0-.1,0-.63,0-1.07s0-1.2-.06-1.82l.24.07a.73.73,0,0,1,.39.26c.14.13.11.8.1,1.1C141.52,34.73,141.46,35.41,141.46,35.48Zm.21-1.58v-.82a.56.56,0,0,0-.17-.42,1.31,1.31,0,0,0-.34-.23,1.51,1.51,0,0,0-.43-.14c-1.69-.43-1.28-2-.24-2,0,.14,0,.28,0,.39s0,.27,0,.46c-.25.14-.06.17.06.21s.45.2.62.28l.56.22C142.75,32.23,142.65,33.39,141.67,33.9Zm-1-3.64c0-.12,0-.46,0-.58a2.18,2.18,0,0,1,.42.05c.34,0,.35,0,.51,0,0,0,0,.25,0,.32s0,.31,0,.44,0,.25,0,.5,0,.39,0,.52a2.69,2.69,0,0,1-.45-.16,2.23,2.23,0,0,1-.43-.25,1.77,1.77,0,0,1,0-.23v-.28Zm1.06.82c0-.21,0-.43,0-.66a.84.84,0,0,1,0-.29c.12-.13.37-.17.19-.44s-.47-.11-.81-.14a7.14,7.14,0,0,1-.94-.12,1.25,1.25,0,0,1-.37-2.33l.26.64.23.55c.38,0,.52,0,1,.07l.47.1A1.31,1.31,0,0,1,141.74,31.08ZM140,26.76l.43-.69,1.2.09v2.05l-1.06-.09-.3-.67ZM141.84,28a4,4,0,0,1-.07-1.31c.57-.06.16-.65,0-.68s-.39,0-.77-.08c-.23,0-.65-.05-.86-.08-3.61-.46-3.08-3.72-1.32-4,1.27-.22,2,.27,2.18.79a1.57,1.57,0,0,1-.67.14,3.93,3.93,0,0,0-.93,0c.19.18.84.28,1.1.51a1.79,1.79,0,0,1-.95.08,3.82,3.82,0,0,1-.79-.2c-.1.33-.32,1,1.29,1.35.22,0,.5.12.79.15a5.72,5.72,0,0,1,.83.14l.3.08A1.57,1.57,0,0,1,141.84,28Zm1.65-5.33c-.94.9-1.38,1.37-1.61,1.62,0,0-.13.25-.24.31l-1.3-.22a4.39,4.39,0,0,1-.06-.9.69.69,0,0,0,.49-.19l-.06-.17a2.72,2.72,0,0,0,.88.15l-.16-.18a3.82,3.82,0,0,1-.6-.2.86.86,0,0,0,.4-.13,2.21,2.21,0,0,0-.16-.37,1.67,1.67,0,0,0-.66-.62.47.47,0,0,1-.06-.3c0-.46.25-.36.73-.2.09,0,.14.1.18.11.31.13.6.32.59.41s0,1.11.09,1.05.79-.62,1-.74C143.29,21.85,143.84,22.33,143.49,22.67Z"></path><path class="cls-2" d="M84.52,66.29a1.41,1.41,0,1,1,1.41,1.42A1.41,1.41,0,0,1,84.52,66.29Zm2.59,0a1.19,1.19,0,1,0-1.18,1.19A1.14,1.14,0,0,0,87.11,66.29Zm-1.5.8H85.4V65.48h.7c.41,0,.56.16.56.45s-.22.42-.5.45l.48.71h-.23L86,66.38h-.34Zm.28-.9c.23,0,.54,0,.54-.26s-.19-.26-.38-.26h-.44v.52Z"></path><path class="cls-2" d="M62,57.66a5.26,5.26,0,0,0-3.57-1.2,4.91,4.91,0,0,0-3.55,1.62,6.26,6.26,0,0,0-1.59,4.27,5.79,5.79,0,0,0,1.65,4.15,5.37,5.37,0,0,0,3.82,1.58,4.59,4.59,0,0,0,4.63-4l0-.1h-.87v.08a3.63,3.63,0,0,1-3.58,3.2c-1.65,0-2.59-1.13-2.6-3.09V61.57h7.23v-.09A5.06,5.06,0,0,0,62,57.66Zm-1.51,3.1H56.31V59.59A2.46,2.46,0,0,1,57,57.78a2,2,0,0,1,1.43-.57c1.33,0,2.07.85,2.08,2.39Z"></path><path class="cls-2" d="M39.33,65.56h-.81v.08A1.49,1.49,0,0,1,37.05,67c-.82,0-1.23-.57-1.23-1.69V57.53h2.67v-.76H35.83V53.39h-.09c-.63.07-1.9.17-2.56.17H33.1v3.19H31.33v.77h1.78v6.78c0,2.5,1.07,3.77,3.18,3.77a2.83,2.83,0,0,0,3-2.41Z"></path><path class="cls-2" d="M29.72,67V60.12a3.66,3.66,0,0,0-1-2.64,3.74,3.74,0,0,0-2.66-1,4.16,4.16,0,0,0-3.46,1.75l0-1.35v-.09H18.23v.76h1.71V67H16.89l-6.25-18,0-.06H9.86l0,.06L3.72,67H2v.75H7.11V67H4.75l1.7-5.12h5.47L13.65,67H11.27v.75h13V67H22.6V61.75c0-3.14,1.68-4.28,2.81-4.28s1.64.71,1.64,2.1V67h-1.6v.75h6V67H29.72ZM9.12,53.8l2.56,7.31h-5Z"></path><path class="cls-2" d="M51.16,67V60a3.44,3.44,0,0,0-3.79-3.55,4.81,4.81,0,0,0-3.77,1.6v-9H39.25v.79h1.63V67H39.12v.75h6.16V67H43.6V61.68a4.58,4.58,0,0,1,1.16-3.39,2.59,2.59,0,0,1,1.84-.79c1.49,0,1.81,1.23,1.81,2.26V67H46.73v.75h6.16V67H51.16Z"></path><path class="cls-2" d="M83.74,67H82.06V59.58c0-1.92-1.32-3.12-3.43-3.12A4.36,4.36,0,0,0,75,58.14a3.25,3.25,0,0,0-3.13-1.68,4.85,4.85,0,0,0-3.56,1.47l0-1.07v-.09H63.88v.76h1.81V67H63.9v.75h6V67H68.38V61.77a5.92,5.92,0,0,1,.67-3.26,2.52,2.52,0,0,1,2-1,1.32,1.32,0,0,1,1.26.76,4.67,4.67,0,0,1,.23,1.91V67h-1.6v.75h5.92V67H75.26V61.77a5.83,5.83,0,0,1,.67-3.26,2.52,2.52,0,0,1,1.95-1,1.32,1.32,0,0,1,1.26.76,4.67,4.67,0,0,1,.23,1.91V67h-1.6v.75h6V67Z"></path><path class="cls-2" d="M92.15,68V49.11h1.67v8.47h7.42V49.11h1.67V68h-1.67V59H93.82v9Z"></path><path class="cls-2" d="M106.6,61.71v1c0,1.82.5,4.25,3,4.25a2.7,2.7,0,0,0,2.9-3h1.64c-.18,3.19-1.9,4.29-4.54,4.29-2.28,0-4.55-.92-4.55-4.91V60.09c0-3.82,1.59-5.57,4.55-5.57,4.54,0,4.54,3.27,4.54,7.19Zm6-1.26c0-2.92-.47-4.67-3-4.67s-3,1.75-3,4.67Z"></path><path class="cls-2" d="M122.77,66.36h0A4.25,4.25,0,0,1,119,68.24c-2.35,0-3.63-1.6-3.63-3.89,0-4.63,4.65-4.16,7.31-4.37v-1.1c0-1.93-.57-3.1-2.66-3.1-1.44,0-2.59.7-2.59,2.27h-1.67c.13-2.53,2.09-3.53,4.39-3.53,1.33,0,4.1.13,4.1,3.5v6.64a27.62,27.62,0,0,0,.16,3.32h-1.62Zm-.11-5.12c-2.24.07-5.64-.19-5.64,3,0,1.49.76,2.71,2.38,2.71a3.38,3.38,0,0,0,3.26-3.34Z"></path><path class="cls-2" d="M127.05,68V49.11h1.57V68Z"></path><path class="cls-2" d="M130.14,56V54.78h2.11V52.07l1.57-.68v3.39h2.66V56h-2.66V64.5c0,1.75.18,2.17,1.44,2.17a8,8,0,0,0,1.22-.08V68A14.41,14.41,0,0,1,135,68c-2.11,0-2.74-.94-2.74-2.56V56Z"></path><path class="cls-2" d="M137.55,68V49.11h1.57V56.4h0a3.84,3.84,0,0,1,3.19-1.88c3.27,0,3.61,2.43,3.61,4.16V68H144.4V58.75c0-1.54-.6-3-2.43-3-1.41,0-2.85,1-2.85,3.92V68Z"></path><path class="cls-2" d="M148.58,68V49.11h1.67v8.65h.05L157,49.11h2L152,57.92,159.21,68h-2.09l-6.82-9.67h-.05V68Z"></path><path class="cls-2" d="M161.41,61.71v1c0,1.82.49,4.25,3,4.25a2.7,2.7,0,0,0,2.9-3h1.65c-.18,3.19-1.91,4.29-4.55,4.29-2.27,0-4.54-.92-4.54-4.91V60.09c0-3.82,1.59-5.57,4.54-5.57,4.55,0,4.55,3.27,4.55,7.19Zm6-1.26c0-2.92-.47-4.67-3-4.67s-3,1.75-3,4.67Z"></path><path class="cls-2" d="M172,61.71v1c0,1.82.49,4.25,3,4.25a2.7,2.7,0,0,0,2.9-3h1.65c-.18,3.19-1.91,4.29-4.55,4.29-2.27,0-4.54-.92-4.54-4.91V60.09c0-3.82,1.59-5.57,4.54-5.57,4.55,0,4.55,3.27,4.55,7.19Zm5.95-1.26c0-2.92-.47-4.67-3-4.67s-3,1.75-3,4.67Z"></path><path class="cls-2" d="M182.91,56.38l.05,0a3.9,3.9,0,0,1,3.19-1.83c4.12,0,4.15,3.61,4.15,5.33V62.8c0,3.43-1.18,5.44-4.55,5.44A3.23,3.23,0,0,1,183,66.51l0,0V73h-1.57V54.78h1.52Zm.05,6.16c0,3,1.36,4.44,2.79,4.44a2.46,2.46,0,0,0,2.67-1.75,18.31,18.31,0,0,0,.31-3.86c0-2.62,0-5.59-2.79-5.59-1.21,0-3,1.15-3,4.41Z"></path><path class="cls-2" d="M193.15,61.71v1c0,1.82.49,4.25,3,4.25a2.7,2.7,0,0,0,2.9-3h1.65c-.18,3.19-1.91,4.29-4.55,4.29-2.27,0-4.54-.92-4.54-4.91V60.09c0-3.82,1.59-5.57,4.54-5.57,4.55,0,4.55,3.27,4.55,7.19Zm5.95-1.26c0-2.92-.47-4.67-3-4.67s-3,1.75-3,4.67Z"></path><path class="cls-2" d="M204.17,56.56h.05a4,4,0,0,1,3.63-2v1.6a3.15,3.15,0,0,0-3.68,3.37V68H202.6V54.78h1.57Z"></path><path class="cls-2" d="M212.24,68.24c-2.84,0-4-1.39-3.94-4.18h1.59c0,1.8.42,3,2.43,3a2,2,0,0,0,2.25-2.32c0-3.45-5.93-2.56-5.93-6.93,0-2.43,1.67-3.29,4-3.29,2.61,0,3.45,1.8,3.45,3.82h-1.54c-.08-1.68-.53-2.56-2.3-2.56a1.87,1.87,0,0,0-2,1.9c0,3.3,5.93,2.41,5.93,6.82C216.14,67,214.7,68.24,212.24,68.24Z"></path><path class="cls-2" d="M222.74,49.11h5.18c1.56,0,4.15.21,4.15,4.58,0,3.78-1.23,5.51-4.47,5.51h-3.18V68h-1.68Zm1.68,8.68h3.11c1.75,0,2.87-.84,2.87-3.79,0-3.21-1.39-3.47-2.9-3.47h-3.08Z"></path><path class="cls-2" d="M233.77,68V49.11h1.57V68Z"></path><path class="cls-2" d="M246.33,54.78V68H245V66.51h-.06a3.94,3.94,0,0,1-3.31,1.73c-2.72,0-3.48-2-3.48-4.13V54.78h1.57v9.07c0,.36-.08,3.13,2.19,3.13a3,3,0,0,0,2.88-2.9v-9.3Z"></path><path class="cls-2" d="M252.11,68.24c-2.85,0-4-1.39-4-4.18h1.6c0,1.8.41,3,2.43,3a2,2,0,0,0,2.24-2.32c0-3.45-5.93-2.56-5.93-6.93,0-2.43,1.67-3.29,4-3.29,2.62,0,3.45,1.8,3.45,3.82h-1.54c-.08-1.68-.52-2.56-2.3-2.56a1.88,1.88,0,0,0-2,1.9c0,3.3,5.93,2.41,5.93,6.82C256,67,254.56,68.24,252.11,68.24Z"></path><path class="cls-2" d="M31.93,82.49V78.07c0-2.69,1.38-4.41,4.23-4.41s4.24,1.72,4.24,4.41v4.42c0,3.73-1.38,5.21-4.24,5.21S31.93,86.22,31.93,82.49Zm6.71.08V78c0-2.82-1.94-2.91-2.48-2.91s-2.48.09-2.48,2.91v4.56c0,2.94.86,3.69,2.48,3.69S38.64,85.51,38.64,82.57Z"></path><path class="cls-2" d="M42.47,78V76.17c0-1.91,1.34-2.28,2.7-2.28a4.81,4.81,0,0,1,.73,0v1.11c-1.62-.12-1.9.57-1.9,1.34V78h1.9v1.16H44v8.27H42.47V79.15H41V78Z"></path><path class="cls-2" d="M46.63,78V76.17c0-1.91,1.34-2.28,2.71-2.28a4.77,4.77,0,0,1,.72,0v1.11c-1.62-.12-1.9.57-1.9,1.34V78h1.9v1.16h-1.9v8.27H46.63V79.15H45.17V78Z"></path><path class="cls-2" d="M52,83.2c0,2.63.71,3.15,1.91,3.15a1.7,1.7,0,0,0,1.64-1.79h1.68c0,2.09-1.31,3-3.29,3s-3.58-.59-3.58-4.75c0-2.77.32-5,3.58-5,2.69,0,3.36,1.47,3.36,4.59v.8ZM55.68,82c0-2.74-.77-3.08-1.89-3.08S52,79.43,52,82Z"></path><path class="cls-2" d="M60.4,79.41h0c.63-1.43,1.42-1.6,2.91-1.6v1.58a7.61,7.61,0,0,0-.82-.09c-1.7,0-2.13,1.29-2.13,2.56v5.56H58.87V78H60.4Z"></path><path class="cls-2" d="M65.49,83.2c0,2.63.71,3.15,1.91,3.15A1.7,1.7,0,0,0,69,84.56h1.68c0,2.09-1.31,3-3.28,3s-3.59-.59-3.59-4.75c0-2.77.32-5,3.59-5,2.68,0,3.35,1.47,3.35,4.59v.8ZM69.17,82c0-2.74-.76-3.08-1.88-3.08s-1.78.47-1.8,3.08Z"></path><path class="cls-2" d="M77.29,73.94h1.53V87.42H77.29V86.3h0a2.33,2.33,0,0,1-2.16,1.3c-1.52,0-3-.59-3-4.74,0-2.35.08-5,3.12-5A2.37,2.37,0,0,1,77.23,79h.06Zm-1.77,5.12c-1.65,0-1.87,1.3-1.87,3.82,0,1.42,0,3.47,1.92,3.47,1.72,0,1.72-2.12,1.72-4C77.29,81.07,77.21,79.06,75.52,79.06Z"></path><path class="cls-2" d="M85.39,87.42H83.86V73.94h1.53v5h0a2.4,2.4,0,0,1,2.07-1.14c3,0,3.12,2.7,3.12,5,0,4.15-1.53,4.74-3,4.74a2.35,2.35,0,0,1-2.17-1.3h0Zm1.71-1.07c1.93,0,1.93-2,1.93-3.47,0-2.52-.23-3.82-1.87-3.82s-1.77,2-1.77,3.26C85.39,83.76,85.22,86.35,87.1,86.35Z"></path><path class="cls-2" d="M94.87,85.66h0L97.16,78h1.66L94.55,91H93L94,87.42,90.84,78h1.77Z"></path><path class="cls-2" d="M101.94,87.42V73.94h1.71v5.83h4.73V73.94h1.71V87.42h-1.71V81.26h-4.73v6.16Z"></path><path class="cls-2" d="M113.53,83.2c0,2.63.7,3.15,1.9,3.15a1.69,1.69,0,0,0,1.64-1.79h1.68c0,2.09-1.31,3-3.28,3s-3.59-.59-3.59-4.75c0-2.77.32-5,3.59-5,2.68,0,3.35,1.47,3.35,4.59v.8ZM117.2,82c0-2.74-.76-3.08-1.88-3.08-1,0-1.78.47-1.79,3.08Z"></path><path class="cls-2" d="M125.19,86.06h0a2.3,2.3,0,0,1-2.37,1.54c-2,0-2.57-1.28-2.57-3.09,0-2.86,2.8-3,4.94-2.93,0-1.25.06-2.62-1.58-2.62a1.4,1.4,0,0,0-1.48,1.68h-1.66c.07-2.1,1.19-2.83,3.19-2.83,2.43,0,3.06,1.25,3.06,2.83v4.54a15.27,15.27,0,0,0,.19,2.24h-1.68Zm-3.45-1.44c0,.91.44,1.73,1.47,1.73s2.09-.57,1.94-3.62C123.7,82.75,121.74,82.62,121.74,84.62Z"></path><path class="cls-2" d="M130.13,87.42H128.6V73.94h1.53Z"></path><path class="cls-2" d="M132.3,78V76.18l1.53-.69V78h2v1.16h-2v5.77c0,.59,0,1.36,1.4,1.36.11,0,.35,0,.69-.08v1.18c-.51,0-1,.15-1.51.15-1.46,0-2.11-.6-2.11-1.68v-6.7h-1.55V78Z"></path><path class="cls-2" d="M141.78,87.42V81c0-1.16-.38-2-1.68-2-1.53,0-1.92,1.23-1.92,2.82v5.54h-1.53V73.94h1.53v5.27h.07a2.49,2.49,0,0,1,2.56-1.4c1.6,0,2.5.8,2.5,2.93v6.68Z"></path><path class="cls-2" d="M145.14,87.42V73.94h1.71v5.92h.06l4.7-5.92h1.94L148.66,80l5.17,7.39h-2.2l-4.72-7h-.06v7Z"></path><path class="cls-2" d="M155.44,83.2c0,2.63.71,3.15,1.9,3.15A1.69,1.69,0,0,0,159,84.56h1.68c0,2.09-1.3,3-3.28,3s-3.59-.59-3.59-4.75c0-2.77.32-5,3.59-5,2.68,0,3.36,1.47,3.36,4.59v.8ZM159.11,82c0-2.74-.76-3.08-1.88-3.08-1,0-1.77.47-1.79,3.08Z"></path><path class="cls-2" d="M163.74,83.2c0,2.63.71,3.15,1.9,3.15a1.7,1.7,0,0,0,1.65-1.79H169c0,2.09-1.31,3-3.29,3s-3.58-.59-3.58-4.75c0-2.77.32-5,3.58-5,2.69,0,3.36,1.47,3.36,4.59v.8ZM167.42,82c0-2.74-.77-3.08-1.89-3.08-1,0-1.77.47-1.79,3.08Z"></path><path class="cls-2" d="M172.21,79.11h0a2.34,2.34,0,0,1,2.16-1.3c1.52,0,3.05.59,3.05,4.74,0,2.35-.08,5-3.12,5a2.39,2.39,0,0,1-2.07-1.13h-.06V91h-1.53V78h1.53Zm3.64,3.44c0-1.42,0-3.49-1.92-3.49s-1.72,2.61-1.72,4c0,1.25.08,3.24,1.78,3.24S175.85,85.07,175.85,82.55Z"></path><path class="cls-2" d="M180.35,83.2c0,2.63.71,3.15,1.9,3.15a1.68,1.68,0,0,0,1.64-1.79h1.68c0,2.09-1.3,3-3.28,3s-3.58-.59-3.58-4.75c0-2.77.31-5,3.58-5,2.69,0,3.36,1.47,3.36,4.59v.8ZM184,82c0-2.74-.76-3.08-1.88-3.08-1,0-1.77.47-1.79,3.08Z"></path><path class="cls-2" d="M188.75,79.41h0c.64-1.43,1.42-1.6,2.91-1.6v1.58a7.61,7.61,0,0,0-.82-.09c-1.7,0-2.12,1.29-2.12,2.56v5.56h-1.53V78h1.53Z"></path><path class="cls-2" d="M195.13,87.6c-2,0-3.31-.89-3.25-3.06h1.74c0,.54,0,1.81,1.56,1.81.92,0,1.63-.46,1.63-1.43,0-1.68-4.71-1.72-4.71-4.54,0-1,.6-2.57,3.25-2.57,1.68,0,3.12.8,3,2.67h-1.7A1.33,1.33,0,0,0,195.16,79a1.29,1.29,0,0,0-1.45,1.27c0,1.66,4.7,1.63,4.7,4.5C198.41,86.8,197,87.6,195.13,87.6Z"></path><path class="cls-2" d="M199.87,85.48h1.92l-1.7,4.31H198.9Z"></path><path class="cls-2" d="M208,87.42h-1.72V73.94H208Z"></path><path class="cls-2" d="M215.11,87.42V80.89c0-1-.35-1.83-1.66-1.83-1.68,0-1.92,1.49-1.92,2.78v5.58H210V80c0-.65,0-1.3-.09-2h1.62v1.22h.07a2.48,2.48,0,0,1,2.52-1.4c2,0,2.52,1.21,2.52,3.08v6.53Z"></path><path class="cls-2" d="M223.23,81c0-1.55-.73-2-1.31-2-1.17,0-2,.56-2,3.13,0,3.06.4,4.16,2,4.16.36,0,1.42-.37,1.36-2.07h1.61a3,3,0,0,1-3,3.32c-2,0-3.58-.59-3.58-4.75,0-2.77.32-5,3.58-5,1.89,0,3,1.1,2.9,3.21Z"></path><path class="cls-2" d="M228.21,87.42h-1.75V85.48h1.75Z"></path></svg>
