<?xml version="1.0" encoding="UTF-8"?>
<!-- Generator: Adobe Illustrator 26.5.0, SVG Export Plug-In . SVG Version: 6.00 Build 0)  -->
<svg xmlns="http://www.w3.org/2000/svg" xmlns:xlink="http://www.w3.org/1999/xlink" version="1.1" id="Layer_1" x="0px" y="0px" viewBox="0 0 550 300" style="enable-background:new 0 0 550 300;" xml:space="preserve">
<style type="text/css">
	.st0{fill:none;}
	.st1{fill:#0033FF;}
	.st2{fill-rule:evenodd;clip-rule:evenodd;fill:#03CC54;}
</style>
<g>
	<path class="st0" d="M516,272.8c-3.4,0-5.7,2.6-6.2,6.3h12.3C521.8,275.6,519.7,272.8,516,272.8z"></path>
	<path class="st0" d="M352,285.6L352,285.6c0,2.4,2,3.6,4.6,3.6c3.6,0,6.4-2,6.4-5.1v-1.4c-1.4-0.5-3.4-1-5.5-1   C354,281.8,352,283.2,352,285.6z"></path>
	<path class="st0" d="M468,151.6c-18.6,0-26.3,18.4-26.3,40.7S449.4,233,468,233s26.3-18.4,26.3-40.7S486.6,151.6,468,151.6z"></path>
	<path class="st0" d="M223.7,279.9c17.3,0,26.8-10.2,26.8-20.2c0-7.9-4.8-15.7-18.7-15.7h-23.3c-6,3.1-10.2,10.5-10.2,17.8   C198.3,272.6,207.5,279.9,223.7,279.9z"></path>
	<path class="st0" d="M331,272.8c-3.4,0-5.7,2.6-6.2,6.3h12.4C336.7,275.6,334.6,272.8,331,272.8z"></path>
	<path class="st0" d="M222.6,150.6c-11.6,0-19.1,9.8-19.1,26s7.5,26,19.1,26c11.5,0,18.9-9.8,18.9-26   C241.6,160.4,234.1,150.6,222.6,150.6z"></path>
	<path class="st0" d="M464.7,285.6L464.7,285.6c0,2.4,2,3.6,4.7,3.6c3.6,0,6.4-2,6.4-5.1v-1.4c-1.4-0.5-3.4-1-5.5-1   C466.8,281.8,464.7,283.2,464.7,285.6z"></path>
	<path class="st1" d="M305.4,268.3c-3.7,0-6,2-7.5,4.2v-12.9h-5.5v33.3h5.5v-13.6c0-3.7,2.2-6,5.4-6c3.3,0,5.1,2.1,5.1,5.9v13.7h5.5   v-15.3C313.9,271.9,310.8,268.3,305.4,268.3z"></path>
	<path class="st1" d="M331,268.3c-6.9,0-11.8,5.6-11.8,12.5v0.1c0,7.4,5.4,12.5,12.4,12.5c4.4,0,7.6-1.8,9.9-4.5l-3.2-2.9   c-1.9,1.9-3.8,2.9-6.5,2.9c-3.5,0-6.3-2.2-6.9-6.1h17.7c0-0.5,0.1-1,0.1-1.5C342.6,274.3,338.7,268.3,331,268.3z M324.7,279.1   c0.5-3.7,2.9-6.3,6.2-6.3c3.6,0,5.7,2.8,6.1,6.3H324.7z"></path>
	<path class="st1" d="M340.9,237.6c0-4.6-1.7-4.9-1.7-4.9h-2.5c-4.2,0-8.4-4.2-8.4-8.4V182c0-17.1,10.2-27.4,23.4-27.4   c11.3,0,19.6,6.3,19.6,20v49.8c0,4.2-4.2,8.4-8.4,8.4h-2.5c0,0-1.7,0.4-1.7,4.7s1.7,6.5,1.7,6.5h49.3c0,0,1.7-1.9,1.7-6.1   c0-4.3-1.7-5.1-1.7-5.1h-2.5c-4.2,0-8.4-4.2-8.4-8.4v-50.8c0-24-15-35.7-36.8-35.7c-16.1,0-28.4,7.5-35.9,18.6c0,0,0-11,0-12.3   c0-3.6-3.4-4.8-7.6-3.2c-2.8,1.1-16.8,6.1-28.7,6.1c-0.7,0.9-1.7,2.7-1.7,5.6c0,2.6,0.6,3.9,1.7,5.6h2.5c4.2,0,8.4,4.2,8.4,8.4   v57.7c0,4.2-4.2,8.4-8.4,8.4h-2.5c0,0-1.7,0.3-1.7,4.8s1.7,6.5,1.7,6.5h49.3C339.2,244,340.9,242.2,340.9,237.6z"></path>
	<path class="st1" d="M249.7,145.5c-7.5-4.9-16.8-7.8-27.1-7.8c-25.8,0-44.7,17.3-44.7,38.9c0,13.3,7.3,24.1,17.3,30.8l-17.5,21.8   c0,0-2.2,4-2.2,8.1c0,4,2.5,6.7,2.5,6.7h12.4c-9.1,5.4-13.3,14.4-13.3,22.1c0,15,13.1,27.3,42.5,27.3c29.5,0,57-15.6,57-40.2   c0-17.5-10.4-29.3-36.4-29.3h-39.3l7.7-10.4c4.4,1.5,7.9,2.1,14.1,2.1c25.6,0,44.7-17.5,44.7-38.9c0-6.7-1.9-12.9-5.1-18.3h15.2   c0.8-1.4,1.7-3.3,1.7-6.5c0-2.5-0.9-5.2-1.6-6.3L249.7,145.5L249.7,145.5z M208.5,244h23.3c13.9,0,18.7,7.8,18.7,15.7   c0,10-9.6,20.2-26.8,20.2c-16.2,0-25.4-7.3-25.4-18.1C198.3,254.5,202.5,247.1,208.5,244z M222.6,202.7c-11.6,0-19.1-9.8-19.1-26   s7.5-26,19.1-26c11.5,0,18.9,9.8,18.9,26C241.6,192.9,234.1,202.7,222.6,202.7z"></path>
	<path class="st1" d="M100.8,209c-3.4-1.2-6.1-0.1-6.1-0.1C87,222.3,80,228.5,69.1,228.5c-19.6,0-32.2-17.8-32.2-38.9   c0-19.6,8.8-38.9,29-38.9c12.7,0,22.5,7.9,22.5,20l0.3,3.8c0,0-0.4,1.7,4.9,1.7s6.7-1.7,6.7-1.7l-1.1-27.4c0,0-0.1-0.7-0.5-1.2   s-1-0.9-1-0.9c-8.1-4.6-19-7.3-31.8-7.3c-29.9,0-57.7,20-57.7,56.2c0,32.4,24.4,52.9,52.4,52.9c26.3,0,38.5-16.5,44-34.9   C104.9,212,103.4,210,100.8,209z"></path>
	<path class="st1" d="M138.2,130.4c9.5,0,17.3-7.9,17.3-17.7S147.8,95,138.2,95c-9.5,0-17.3,7.9-17.3,17.7   C121,122.5,128.7,130.4,138.2,130.4z"></path>
	<path class="st1" d="M152,162.9c0-4.2,4.2-8.4,8.4-8.4h2.5c0,0,1.7-1,1.7-5.1s-1.7-6.1-1.7-6.1h-49.3c0,0-1.7,2.5-1.7,6.5   s1.7,4.8,1.7,4.8h2.5c4.2,0,8.4,4.2,8.4,8.4v41.8v19.7c0,4.2-4.2,8.4-8.4,8.4h-2.5c0,0-1.7,0.8-1.7,4.8s1.7,6.5,1.7,6.5h49.3   c0,0,1.7-2.1,1.7-6.1s-1.7-5.1-1.7-5.1h-2.5c-4.2,0-8.4-4.2-8.4-8.4V210V162.9z"></path>
	<path class="st1" d="M470.5,268.4c-3.9,0-6.5,0.8-9.2,2l1.5,4.4c2.2-0.9,4.2-1.5,6.9-1.5c3.8,0,5.9,1.8,5.9,5.1v0.5   c-1.9-0.6-3.7-1-6.7-1c-5.6,0-9.8,2.5-9.8,7.9v0.1c0,4.8,4,7.4,8.6,7.4c3.6,0,6.2-1.5,7.8-3.5v3h5.5v-14.3   C481.1,272.2,477.6,268.4,470.5,268.4z M475.7,284.1c0,3-2.7,5.1-6.4,5.1c-2.6,0-4.7-1.3-4.7-3.5v-0.1c0-2.3,2-3.7,5.5-3.7   c2.1,0,4.1,0.4,5.5,1L475.7,284.1L475.7,284.1z"></path>
	<path class="st1" d="M493.2,274.2v-5.4h-5.5v24.1h5.5v-9.2c0-6.4,3.4-9.5,8.2-9.5h0.3v-5.8C497.4,268.1,494.7,270.6,493.2,274.2z"></path>
	<path class="st1" d="M534.4,229c0-3.2-1.7-4.2-1.7-4.2h-2.5c-4.2,0-8.3-4.2-8.3-8.4v-73.5c0,0-0.2-2.2-2.5-2.2H513   c-1.2,0-2.2,1-2.2,1l-8.9,11.6c-1,1.4-2.2,0-2.2,0l0,0c-5.9-7-15.9-15.6-33.9-15.6c-27,0-52.6,19.6-52.6,55.6   c0,33.6,22.1,53.5,49.3,53.5c15.5,0,25.3-6.5,33-16.5v12.4c0,0,0.1,2.8,3.3,3.5c2.9,0.6,5.1-0.3,5.1-0.3l28.8-12.3   C532.7,233.8,534.4,232.2,534.4,229z M468,233.1c-18.6,0-26.3-18.4-26.3-40.7c0-22.4,7.7-40.7,26.3-40.7s26.3,18.4,26.3,40.7   S486.6,233.1,468,233.1z"></path>
	<g>
		<path class="st1" d="M533.8,272.9l-1.3-0.3c-0.5-0.1-0.8-0.2-1-0.3c-0.2-0.1-0.4-0.3-0.4-0.6c0-0.3,0.1-0.5,0.4-0.7s0.6-0.2,1-0.2    s0.7,0.1,0.9,0.2c0.4,0.2,0.6,0.5,0.6,1h1.5c0-0.8-0.3-1.4-0.9-1.8c-0.6-0.4-1.2-0.6-2-0.6c-1,0-1.7,0.2-2.2,0.7s-0.7,1-0.7,1.7    s0.2,1.3,0.8,1.6c0.3,0.2,0.8,0.4,1.6,0.6l0.8,0.2c0.5,0.1,0.8,0.2,1,0.4c0.2,0.1,0.3,0.3,0.3,0.6c0,0.4-0.2,0.7-0.7,0.9    c-0.2,0.1-0.5,0.1-0.9,0.1c-0.6,0-1.1-0.2-1.3-0.5c-0.1-0.2-0.2-0.4-0.3-0.8h-1.5c0,0.8,0.3,1.4,0.8,1.9s1.3,0.7,2.3,0.7    s1.7-0.2,2.2-0.7s0.8-1,0.8-1.7s-0.2-1.2-0.7-1.5C534.8,273.2,534.4,273.1,533.8,272.9z"></path>
		<path class="st1" d="M541.9,269.7l-1.4,5.9l-1.4-5.9h-2.3v7.5h1.5v-5.1c0-0.1,0-0.4,0-0.6c0-0.3,0-0.5,0-0.6l1.4,6.3h1.5l1.4-6.3    c0,0.1,0,0.4,0,0.6c0,0.3,0,0.5,0,0.6v5.1h1.5v-7.5H541.9z"></path>
	</g>
	<path class="st1" d="M357.7,268.4c-3.9,0-6.5,0.8-9.2,2l1.5,4.4c2.2-0.9,4.2-1.5,6.9-1.5c3.8,0,5.9,1.8,5.9,5.1v0.5   c-1.9-0.6-3.7-1-6.7-1c-5.6,0-9.8,2.5-9.8,7.9v0.1c0,4.8,4,7.4,8.6,7.4c3.6,0,6.1-1.5,7.8-3.5v3h5.5v-14.3   C368.3,272.2,364.9,268.4,357.7,268.4z M363,284.1c0,3-2.7,5.1-6.4,5.1c-2.6,0-4.6-1.3-4.6-3.5v-0.1c0-2.3,2-3.7,5.5-3.7   c2.1,0,4.1,0.4,5.5,1V284.1L363,284.1z"></path>
	<path class="st1" d="M516.1,268.3c-6.9,0-11.8,5.6-11.8,12.5v0.1c0,7.4,5.4,12.5,12.3,12.5c4.4,0,7.6-1.8,9.8-4.5l-3.2-2.9   c-1.9,1.9-3.8,2.9-6.5,2.9c-3.5,0-6.3-2.2-6.9-6.1h17.7c0-0.5,0.1-1,0.1-1.5C527.6,274.3,523.7,268.3,516.1,268.3z M509.8,279.1   c0.5-3.7,2.9-6.3,6.2-6.3c3.7,0,5.7,2.8,6.1,6.3H509.8z"></path>
	<path class="st1" d="M446.2,288.6c-4.2,0-7.2-3.5-7.2-7.8v-0.1c0-4.2,2.9-7.7,6.9-7.7c2.8,0,4.6,1.2,6.2,3l3.4-3.7   c-2.2-2.5-5.1-4.1-9.6-4.1c-7.2,0-12.5,5.7-12.5,12.6v0.1c0,6.8,5.3,12.4,12.4,12.4c4.7,0,7.5-1.9,9.8-4.5l-3.3-3.3   C450.8,287.4,448.8,288.6,446.2,288.6z"></path>
	<rect x="375.2" y="259.6" class="st1" width="5.5" height="33.3"></rect>
	<path class="st1" d="M394.6,262.2H389v6.6h-3v4.7h3v12.7c0,5.3,2.9,7.1,6.9,7.1c2,0,3.6-0.5,5-1.2v-4.5c-1.1,0.5-2.2,0.8-3.4,0.8   c-1.9,0-3-0.9-3-3v-11.8h6.5v-4.7h-6.5L394.6,262.2L394.6,262.2z"></path>
	<path class="st1" d="M419.6,268.3c-3.7,0-6,2-7.5,4.2v-12.9h-5.5v33.3h5.5v-13.6c0-3.7,2.2-6,5.4-6c3.3,0,5.2,2.1,5.2,5.9v13.7h5.5   v-15.3C428.2,271.9,425,268.3,419.6,268.3z"></path>
	<path class="st2" d="M125.5,52.2c0-11.1,5.1-21.1,12.9-27.8c7.9,6.7,12.9,16.7,12.8,27.8c0,11.1-5,21.1-12.9,27.8   C130.4,73.3,125.4,63.4,125.5,52.2 M164.6,23.8c-3.2,7.8-2.6,16.2,0.9,23.2c7.5-2.4,13.9-7.9,17.1-15.7s2.6-16.2-0.9-23.2   C174.3,10.4,167.9,16,164.6,23.8 M94,31.1c3.2,7.8,9.6,13.4,17.1,15.8c3.6-7,4.2-15.4,1-23.2S102.5,10.3,95,7.9   C91.4,14.9,90.8,23.3,94,31.1 M49.2,86.2c7.8,3.2,16.2,2.6,23.2-0.9c-2.4-7.5-7.9-13.9-15.7-17.1s-16.2-2.6-23.2,0.9   C35.9,76.6,41.4,83,49.2,86.2 M219.8,68.5c-7.8,3.2-13.4,9.6-15.8,17.1c7,3.6,15.4,4.2,23.2,1S240.6,77,243,69.5   C236,66,227.6,65.3,219.8,68.5 M198.6,100c-11.1,0-21.1,5-27.8,12.8c6.7,7.9,16.6,12.9,27.8,12.9s21.1-5,27.8-12.8   C219.7,105.1,209.8,100,198.6,100 M171.9,61c-7.9,7.9-11.4,18.4-10.6,28.7c10.3,0.9,20.9-2.6,28.8-10.5   c7.9-7.9,11.4-18.4,10.6-28.7C190.4,49.6,179.8,53.1,171.9,61 M78,100c-11.1,0-21.1,5.1-27.8,12.9c6.7,7.9,16.7,12.9,27.8,12.8   s21.1-5,27.8-12.9C99.1,105,89.1,100,78,100 M104.6,61c-7.9-7.9-18.5-11.3-28.8-10.5C75,60.8,78.6,71.4,86.4,79.2   s18.5,11.3,28.8,10.5C116.1,79.4,112.5,68.8,104.6,61"></path>
</g>
</svg>
